# xmcd
#
# Track frame offsets: 
#        150
#        14270
#        28540
#        43000
#        60627
#        74330
#        89437
#        104255
#        118465
#        136995
#        153277
#
# Disc length: 2216 seconds
#
# Revision: 4
# Processed by: cddbd v1.5.2PL0 Copyright (c) Steve Scherf et al.
# Submitted via: ExactAudioCopy v0.99pb4
#
DISCID=9308a60b
DTITLE=Terri Clark - Just the Same
DYEAR=1996
DGENRE=Country
TTITLE0=Emotional Girl
TTITLE1=Poor, Poor Pitiful Me
TTITLE2=Just the Same
TTITLE3=Something in the Water
TTITLE4=Neon Flame
TTITLE5=Any Woman
TTITLE6=Twang Thang
TTITLE7=You Do or You Don't
TTITLE8=Keeper of the Flame
TTITLE9=Not What I Wanted to Hear
TTITLE10=Hold Your Horses
EXTD=
EXTT0=
EXTT1=
EXTT2=
EXTT3=
EXTT4=
EXTT5=
EXTT6=
EXTT7=
EXTT8=
EXTT9=
EXTT10=
PLAYORDER=
